<?xml version="1.0" encoding="iso-8859-1"?>
<!-- Uploaded to: SVG Repo, www.svgrepo.com, Generator: SVG Repo Mixer Tools -->
<svg height="800px" width="800px" version="1.1" id="Layer_1" xmlns="http://www.w3.org/2000/svg" xmlns:xlink="http://www.w3.org/1999/xlink" 
	 viewBox="0 0 512 512" xml:space="preserve">
<path style="fill:#E7B636;" d="M256.109,461.913c-4.272,0-8.544-1.631-11.804-4.892l-83.478-83.478
	c-4.777-4.772-6.206-11.956-3.62-18.196c2.581-6.239,8.668-10.305,15.423-10.305h166.957c6.755,0,12.842,4.065,15.423,10.305
	c2.587,6.239,1.158,13.424-3.62,18.196l-83.478,83.478C264.652,460.282,260.381,461.913,256.109,461.913z"/>
<path style="fill:#DE9E2B;" d="M339.587,345.043H256v116.848c0.037,0,0.072,0.021,0.109,0.021c4.272,0,8.544-1.631,11.804-4.892
	l83.478-83.478c4.777-4.772,6.206-11.956,3.62-18.196C352.43,349.108,346.342,345.043,339.587,345.043z"/>
<path style="fill:#AF3D25;" d="M206.022,512H105.739c-9.223,0-16.696-7.473-16.696-16.696v-66.783
	c0-46.032,37.446-83.478,83.478-83.478c4.429,0,8.783,1.761,11.913,4.892l83.478,83.478c6.521,6.516,6.521,17.092,0,23.609
	l-50.087,50.087C214.696,510.239,210.451,512,206.022,512z"/>
<path style="fill:#C8563E;" d="M420.606,408.843c1.536,6.313,2.351,12.904,2.351,19.679v66.783c0,9.223-7.473,16.696-16.696,16.696
	H165.718l162.065-162.065c3.131-3.131,7.375-4.892,11.853-4.892C378.8,345.159,411.736,372.383,420.606,408.843z"/>
<path style="fill:#BC4931;" d="M339.636,345.043c-4.478,0-8.723,1.761-11.853,4.892L256,421.718V512h150.261
	c9.223,0,16.696-7.473,16.696-16.696v-66.783c0-6.774-0.815-13.364-2.35-19.679C411.736,372.384,378.8,345.159,339.636,345.043z"/>
<path style="fill:#649CE2;" d="M205.913,66.783H105.739c-9.223,0-16.696-7.473-16.696-16.696s7.473-16.696,16.696-16.696h100.174
	c9.223,0,16.696,7.473,16.696,16.696S215.136,66.783,205.913,66.783z"/>
<path style="fill:#598BC8;" d="M406.261,66.783H306.087c-9.223,0-16.696-7.473-16.696-16.696s7.473-16.696,16.696-16.696h100.174
	c9.223,0,16.696,7.473,16.696,16.696S415.484,66.783,406.261,66.783z"/>
<path style="fill:#494965;" d="M389.456,311.652h-39.07c-5.441,0-10.538-2.652-13.668-7.103c-3.125-4.457-3.88-10.152-2.032-15.272
	c3.179-8.793,4.793-18.119,4.793-27.711c0-18.179-5.908-35.706-16.756-50.087H189.277c-10.848,14.381-16.756,31.908-16.756,50.087
	c0,9.592,1.614,18.918,4.794,27.711c1.848,5.12,1.092,10.815-2.032,15.272c-3.131,4.451-8.229,7.103-13.668,7.103h-39.071
	c-27.517,0-50.034-21.826-50.196-48.647c-0.592-80.441,52.674-153.19,129.538-176.897c4.434-1.369,9.261-0.831,13.299,1.516
	c4.027,2.337,6.896,6.25,7.913,10.793c1.696,7.588,8.365,12.887,16.207,12.887h33.391c7.842,0,14.511-5.299,16.207-12.886
	c1.016-4.538,3.88-8.451,7.903-10.788c4.033-2.332,8.859-2.881,13.287-1.527c76.875,23.587,130.152,96.342,129.559,176.923
	C439.479,289.842,416.967,311.652,389.456,311.652z"/>
<path style="fill:#38384D;" d="M310.093,86.103c-4.429-1.353-9.255-0.805-13.287,1.527c-4.021,2.337-6.886,6.25-7.903,10.788
	c-1.696,7.588-8.365,12.887-16.207,12.887H256v100.174h66.722c10.848,14.381,16.756,31.908,16.756,50.087
	c0,9.592-1.614,18.918-4.794,27.711c-1.848,5.12-1.092,10.815,2.032,15.272c3.131,4.451,8.229,7.103,13.668,7.103h39.071
	c27.511,0,50.021-21.81,50.196-48.626C440.244,182.446,386.967,109.69,310.093,86.103z"/>
<path style="fill:#AF3D25;" d="M272.696,144.696h-33.391c-27.984,0-50.087-22.448-50.087-50.087V50.087
	C189.217,22.468,211.685,0,239.304,0h33.391c27.619,0,50.087,22.468,50.087,50.087v44.522
	C322.783,121.704,301.201,144.696,272.696,144.696z"/>
<path style="fill:#BC4931;" d="M272.696,0H256v144.696h16.696c28.505,0,50.087-22.992,50.087-50.087V50.087
	C322.783,22.468,300.315,0,272.696,0z"/>
<path style="fill:#EDE4E4;" d="M256,361.739c-55.234,0-100.174-44.94-100.174-100.174c0-24.712,9.092-48.43,25.598-66.783h149.152
	c16.505,18.353,25.598,42.071,25.598,66.783C356.174,316.799,311.234,361.739,256,361.739z"/>
<path style="fill:#DECCCC;" d="M330.576,194.783H256v166.957c55.234,0,100.174-44.94,100.174-100.174
	C356.174,236.853,347.081,213.136,330.576,194.783z"/>
<path style="fill:#BC4931;" d="M261.565,311.652h-11.13c-9.223,0-16.696-7.473-16.696-16.696s7.473-16.696,16.696-16.696h11.13
	c9.223,0,16.696,7.473,16.696,16.696S270.788,311.652,261.565,311.652z"/>
<path style="fill:#AF3D25;" d="M256,311.652h5.565c9.223,0,16.696-7.473,16.696-16.696s-7.473-16.696-16.696-16.696H256V311.652z"/>
</svg>