<?xml version="1.0" encoding="utf-8"?>
<!DOCTYPE svg PUBLIC "-//W3C//DTD SVG 1.1//EN" "http://www.w3.org/Graphics/SVG/1.1/DTD/svg11.dtd">
<svg version="1.1" id="Layer_1" xmlns="http://www.w3.org/2000/svg" xmlns:xlink="http://www.w3.org/1999/xlink" x="0px" y="0px"
	 width="169.301px" height="112.699px" viewBox="0 0 169.301 112.699" enable-background="new 0 0 169.301 112.699"
	 xml:space="preserve">
<g>
	<polygon points="127.477,22.29 143.505,22.29 143.505,71.377 169.301,71.377 169.301,85.402 127.477,85.402"/>
	<g>
		<path d="M107.189,73.131c2.505-4.258,4.328-7.65,4.328-7.65l8.694,19.924h-17.53l-1.307-3.232
			C101.376,82.17,105.709,75.646,107.189,73.131L107.189,73.131z"/>
		<path d="M92.664,22.29H77.137L49.588,85.402h17.781l17.28-44.581l8.108,20.045c3.171-6.095,5.882-12.953,7.748-20.614
			L92.664,22.29L92.664,22.29z"/>
	</g>
	<path d="M31.557,22.29h16.027v41.074c0,25.043-23.792,24.293-23.792,24.293C8.016,87.656,0,76.887,0,76.887l12.521-9.518
		c4.509,6.512,10.521,6.01,10.521,6.01c7.514,0,8.516-9.266,8.516-9.266V22.29L31.557,22.29z"/>
	<g>
		<path fill="#E21F2A" d="M117.709,0c9.016,80.393-54.598,112.7-54.598,112.7C120.965,65.115,101.931,0,101.931,0H117.709L117.709,0
			z"/>
			<linearGradient id="SVGID_1_" gradientUnits="userSpaceOnUse" x1="138.0625" y1="-180.9902" x2="138.0625" y2="-68.2905" gradientTransform="matrix(1 0 0 -1 -57.6001 -68.291)">
			<stop  offset="0" style="stop-color:#7A7C7F"/>
			<stop  offset="0.35" style="stop-color:#F5F5F5"/>
			<stop  offset="1" style="stop-color:#7A7C7F"/>
		</linearGradient>
		<path fill="url(#SVGID_1_)" d="M101.932,0C112.452,70.125,55.85,99.676,55.85,99.676l7.265,13.023
			C121.467,63.613,101.932,0,101.932,0L101.932,0z"/>
	</g>
</g>
</svg>
